<svg width="6" height="10" viewBox="0 0 6 10" fill="none" xmlns="http://www.w3.org/2000/svg">
    <path stroke-width="5" d="M6 1.12564V0.105764C6 0.0173654 5.90294 -0.0314517 5.8374 0.0226428L0.15506 4.66818C0.10678 4.70748 0.0677144 4.7578 0.0408418 4.8153C0.0139692 4.87281 0 4.93598 0 5C0 5.06402 0.0139692 5.12719 0.0408418 5.1847C0.0677144 5.2422 0.10678 5.29252 0.15506 5.33182L5.8374 9.97736C5.9042 10.0315 6 9.98263 6 9.89424V8.87436C6 8.80971 5.97101 8.7477 5.92311 8.70811L1.38531 5.00066L5.92311 1.29189C5.97101 1.2523 6 1.19029 6 1.12564Z" fill="#FF7373"/>
</svg>
