<?xml version="1.0" encoding="UTF-8" standalone="no"?>
<!-- Generator: Adobe Illustrator 19.2.1, SVG Export Plug-In . SVG Version: 6.00 Build 0)  -->

<svg
   version="1.1"
   id="layer"
   x="0px"
   y="0px"
   viewBox="0 250 623.59998 130.39999"
   xml:space="preserve"
   sodipodi:docname="uconnlogo.svg"
   width="623.59998"
   height="130.39999"
   inkscape:version="1.1.1 (3bf5ae0d25, 2021-09-20)"
   xmlns:inkscape="http://www.inkscape.org/namespaces/inkscape"
   xmlns:sodipodi="http://sodipodi.sourceforge.net/DTD/sodipodi-0.dtd"
   xmlns="http://www.w3.org/2000/svg"
   xmlns:svg="http://www.w3.org/2000/svg"><defs
   id="defs129" /><sodipodi:namedview
   id="namedview127"
   pagecolor="#505050"
   bordercolor="#eeeeee"
   borderopacity="1"
   inkscape:pageshadow="0"
   inkscape:pageopacity="0"
   inkscape:pagecheckerboard="0"
   showgrid="false"
   inkscape:zoom="1.2239264"
   inkscape:cx="357.45614"
   inkscape:cy="58.010025"
   inkscape:window-width="1920"
   inkscape:window-height="1011"
   inkscape:window-x="0"
   inkscape:window-y="32"
   inkscape:window-maximized="1"
   inkscape:current-layer="layer" />
<style
   type="text/css"
   id="style108">
	.st0{fill:#2a2a2a;}
</style>
<g
   id="g124"
   transform="translate(-14.1,-10.2)">
	<g
   id="g122">
		<g
   id="g120">
			<path
   class="st0"
   d="m 96.7,362.7 c -8.4,2.5 -17,5.5 -27.5,5.5 -10.5,0 -19.1,-3.1 -27.5,-5.5 v -99 H 14.1 v 112.7 c 15,8.8 34.1,14.2 55,14.2 20.7,0 40.1,-5.3 55.1,-14.2 V 263.8 H 96.7 Z"
   id="path110" />
			<path
   class="st0"
   d="m 225.5,288 v 18.3 H 253 v -32.1 c -15,-8.8 -34.1,-13.9 -55,-13.9 -20.7,0 -39.8,5.1 -54.8,13.9 v 102.5 c 15,8.6 34.1,13.8 54.8,13.8 20.9,0 40.1,-5.1 55,-13.8 v -37.4 h -27.5 v 23.4 c -8.2,2.5 -17,3.9 -27.5,3.9 -10.5,0 -19.1,-1.4 -27.3,-3.9 V 288 c 8.2,-2.5 16.8,-3.9 27.3,-3.9 10.5,0 19.3,1.4 27.5,3.9 z"
   id="path112" />
			<path
   class="st0"
   d="m 272.5,274 v 102.7 c 15,8.6 34.1,13.8 55.1,13.8 20.7,0 40.1,-5.1 55,-13.8 V 274 c -15,-8.6 -34.1,-13.8 -55.1,-13.8 -20.7,0.1 -40,5.2 -55,13.8 z m 82.6,88.7 c -8.4,2.5 -17.1,3.9 -27.5,3.9 -10.5,0 -19.1,-1.4 -27.5,-3.9 V 288 c 8.4,-2.7 17,-3.9 27.5,-3.9 10.5,0 19.1,1.4 27.5,3.9 z"
   id="path114" />
			<polygon
   class="st0"
   points="400.6,263.8 400.6,386.8 425.4,386.8 425.4,299.5 426.3,299.5 480.9,386.8 510.3,386.8 510.3,263.8 485.2,263.8 485.2,351 484.6,351 430,263.8 "
   id="polygon116" />
			<polygon
   class="st0"
   points="528.1,263.8 528.1,386.8 552.9,386.8 552.9,299.5 553.8,299.5 608.4,386.8 637.7,386.8 637.7,263.8 612.7,263.8 612.7,351 612.1,351 557.5,263.8 "
   id="polygon118" />
		</g>
	</g>
</g>
</svg>
